<svg width="256" height="23" viewBox="0 0 256 23" fill="none" xmlns="http://www.w3.org/2000/svg">
<path d="M0.744 10.572C0.744 9.196 0.968 8.124 1.416 7.356C1.864 6.58 2.648 6.192 3.768 6.192C4.88 6.192 5.66 6.58 6.108 7.356C6.556 8.124 6.78 9.196 6.78 10.572C6.78 11.972 6.556 13.06 6.108 13.836C5.66 14.612 4.88 15 3.768 15C2.648 15 1.864 14.612 1.416 13.836C0.968 13.06 0.744 11.972 0.744 10.572ZM5.7 10.572C5.7 9.876 5.652 9.288 5.556 8.808C5.468 8.32 5.28 7.928 4.992 7.632C4.712 7.336 4.304 7.188 3.768 7.188C3.224 7.188 2.808 7.336 2.52 7.632C2.24 7.928 2.052 8.32 1.956 8.808C1.868 9.288 1.824 9.876 1.824 10.572C1.824 11.292 1.868 11.896 1.956 12.384C2.052 12.872 2.24 13.264 2.52 13.56C2.808 13.856 3.224 14.004 3.768 14.004C4.304 14.004 4.712 13.856 4.992 13.56C5.28 13.264 5.468 12.872 5.556 12.384C5.652 11.896 5.7 11.292 5.7 10.572ZM8.03916 8.28C8.03916 7.736 8.20316 7.304 8.53116 6.984C8.85916 6.656 9.27916 6.492 9.79116 6.492C10.3032 6.492 10.7232 6.656 11.0512 6.984C11.3792 7.304 11.5432 7.736 11.5432 8.28C11.5432 8.832 11.3792 9.272 11.0512 9.6C10.7232 9.92 10.3032 10.08 9.79116 10.08C9.27916 10.08 8.85916 9.92 8.53116 9.6C8.20316 9.272 8.03916 8.832 8.03916 8.28ZM15.0472 6.624L10.1872 15H9.10716L13.9672 6.624H15.0472ZM9.79116 7.164C9.51916 7.164 9.30316 7.26 9.14316 7.452C8.99116 7.636 8.91516 7.912 8.91516 8.28C8.91516 8.648 8.99116 8.928 9.14316 9.12C9.30316 9.312 9.51916 9.408 9.79116 9.408C10.0632 9.408 10.2792 9.312 10.4392 9.12C10.5992 8.92 10.6792 8.64 10.6792 8.28C10.6792 7.912 10.5992 7.636 10.4392 7.452C10.2792 7.26 10.0632 7.164 9.79116 7.164ZM12.6352 13.344C12.6352 12.792 12.7992 12.356 13.1272 12.036C13.4552 11.708 13.8752 11.544 14.3872 11.544C14.8992 11.544 15.3152 11.708 15.6352 12.036C15.9632 12.356 16.1272 12.792 16.1272 13.344C16.1272 13.888 15.9632 14.324 15.6352 14.652C15.3152 14.98 14.8992 15.144 14.3872 15.144C13.8752 15.144 13.4552 14.984 13.1272 14.664C12.7992 14.336 12.6352 13.896 12.6352 13.344ZM14.3752 12.228C14.1032 12.228 13.8872 12.324 13.7272 12.516C13.5672 12.7 13.4872 12.976 13.4872 13.344C13.4872 13.704 13.5672 13.98 13.7272 14.172C13.8872 14.356 14.1032 14.448 14.3752 14.448C14.6472 14.448 14.8632 14.356 15.0232 14.172C15.1832 13.98 15.2632 13.704 15.2632 13.344C15.2632 12.976 15.1832 12.7 15.0232 12.516C14.8632 12.324 14.6472 12.228 14.3752 12.228Z" fill="#2F2F2F" fill-opacity="0.6"/>
<path d="M129.276 7.272H125.064V10.008C125.248 9.752 125.52 9.544 125.88 9.384C126.24 9.216 126.628 9.132 127.044 9.132C127.708 9.132 128.248 9.272 128.664 9.552C129.08 9.824 129.376 10.18 129.552 10.62C129.736 11.052 129.828 11.512 129.828 12C129.828 12.576 129.72 13.092 129.504 13.548C129.288 14.004 128.956 14.364 128.508 14.628C128.068 14.892 127.52 15.024 126.864 15.024C126.024 15.024 125.344 14.808 124.824 14.376C124.304 13.944 123.988 13.368 123.876 12.648H124.944C125.048 13.104 125.268 13.46 125.604 13.716C125.94 13.972 126.364 14.1 126.876 14.1C127.508 14.1 127.984 13.912 128.304 13.536C128.624 13.152 128.784 12.648 128.784 12.024C128.784 11.4 128.624 10.92 128.304 10.584C127.984 10.24 127.512 10.068 126.888 10.068C126.464 10.068 126.092 10.172 125.772 10.38C125.46 10.58 125.232 10.856 125.088 11.208H124.056V6.312H129.276V7.272ZM131.279 10.572C131.279 9.196 131.503 8.124 131.951 7.356C132.399 6.58 133.183 6.192 134.303 6.192C135.415 6.192 136.195 6.58 136.643 7.356C137.091 8.124 137.315 9.196 137.315 10.572C137.315 11.972 137.091 13.06 136.643 13.836C136.195 14.612 135.415 15 134.303 15C133.183 15 132.399 14.612 131.951 13.836C131.503 13.06 131.279 11.972 131.279 10.572ZM136.235 10.572C136.235 9.876 136.187 9.288 136.091 8.808C136.003 8.32 135.815 7.928 135.527 7.632C135.247 7.336 134.839 7.188 134.303 7.188C133.759 7.188 133.343 7.336 133.055 7.632C132.775 7.928 132.587 8.32 132.491 8.808C132.403 9.288 132.359 9.876 132.359 10.572C132.359 11.292 132.403 11.896 132.491 12.384C132.587 12.872 132.775 13.264 133.055 13.56C133.343 13.856 133.759 14.004 134.303 14.004C134.839 14.004 135.247 13.856 135.527 13.56C135.815 13.264 136.003 12.872 136.091 12.384C136.187 11.896 136.235 11.292 136.235 10.572ZM138.574 8.28C138.574 7.736 138.738 7.304 139.066 6.984C139.394 6.656 139.814 6.492 140.326 6.492C140.838 6.492 141.258 6.656 141.586 6.984C141.914 7.304 142.078 7.736 142.078 8.28C142.078 8.832 141.914 9.272 141.586 9.6C141.258 9.92 140.838 10.08 140.326 10.08C139.814 10.08 139.394 9.92 139.066 9.6C138.738 9.272 138.574 8.832 138.574 8.28ZM145.582 6.624L140.722 15H139.642L144.502 6.624H145.582ZM140.326 7.164C140.054 7.164 139.838 7.26 139.678 7.452C139.526 7.636 139.45 7.912 139.45 8.28C139.45 8.648 139.526 8.928 139.678 9.12C139.838 9.312 140.054 9.408 140.326 9.408C140.598 9.408 140.814 9.312 140.974 9.12C141.134 8.92 141.214 8.64 141.214 8.28C141.214 7.912 141.134 7.636 140.974 7.452C140.814 7.26 140.598 7.164 140.326 7.164ZM143.17 13.344C143.17 12.792 143.334 12.356 143.662 12.036C143.99 11.708 144.41 11.544 144.922 11.544C145.434 11.544 145.85 11.708 146.17 12.036C146.498 12.356 146.662 12.792 146.662 13.344C146.662 13.888 146.498 14.324 146.17 14.652C145.85 14.98 145.434 15.144 144.922 15.144C144.41 15.144 143.99 14.984 143.662 14.664C143.334 14.336 143.17 13.896 143.17 13.344ZM144.91 12.228C144.638 12.228 144.422 12.324 144.262 12.516C144.102 12.7 144.022 12.976 144.022 13.344C144.022 13.704 144.102 13.98 144.262 14.172C144.422 14.356 144.638 14.448 144.91 14.448C145.182 14.448 145.398 14.356 145.558 14.172C145.718 13.98 145.798 13.704 145.798 13.344C145.798 12.976 145.718 12.7 145.558 12.516C145.398 12.324 145.182 12.228 144.91 12.228Z" fill="#2F2F2F" fill-opacity="0.6"/>
<path d="M227.456 7.32V6.324H229.712V15H228.608V7.32H227.456ZM231.588 10.572C231.588 9.196 231.812 8.124 232.26 7.356C232.708 6.58 233.492 6.192 234.612 6.192C235.724 6.192 236.504 6.58 236.952 7.356C237.4 8.124 237.624 9.196 237.624 10.572C237.624 11.972 237.4 13.06 236.952 13.836C236.504 14.612 235.724 15 234.612 15C233.492 15 232.708 14.612 232.26 13.836C231.812 13.06 231.588 11.972 231.588 10.572ZM236.544 10.572C236.544 9.876 236.496 9.288 236.4 8.808C236.312 8.32 236.124 7.928 235.836 7.632C235.556 7.336 235.148 7.188 234.612 7.188C234.068 7.188 233.652 7.336 233.364 7.632C233.084 7.928 232.896 8.32 232.8 8.808C232.712 9.288 232.668 9.876 232.668 10.572C232.668 11.292 232.712 11.896 232.8 12.384C232.896 12.872 233.084 13.264 233.364 13.56C233.652 13.856 234.068 14.004 234.612 14.004C235.148 14.004 235.556 13.856 235.836 13.56C236.124 13.264 236.312 12.872 236.4 12.384C236.496 11.896 236.544 11.292 236.544 10.572ZM239.123 10.572C239.123 9.196 239.347 8.124 239.795 7.356C240.243 6.58 241.027 6.192 242.147 6.192C243.259 6.192 244.039 6.58 244.487 7.356C244.935 8.124 245.159 9.196 245.159 10.572C245.159 11.972 244.935 13.06 244.487 13.836C244.039 14.612 243.259 15 242.147 15C241.027 15 240.243 14.612 239.795 13.836C239.347 13.06 239.123 11.972 239.123 10.572ZM244.079 10.572C244.079 9.876 244.031 9.288 243.935 8.808C243.847 8.32 243.659 7.928 243.371 7.632C243.091 7.336 242.683 7.188 242.147 7.188C241.603 7.188 241.187 7.336 240.899 7.632C240.619 7.928 240.431 8.32 240.335 8.808C240.247 9.288 240.203 9.876 240.203 10.572C240.203 11.292 240.247 11.896 240.335 12.384C240.431 12.872 240.619 13.264 240.899 13.56C241.187 13.856 241.603 14.004 242.147 14.004C242.683 14.004 243.091 13.856 243.371 13.56C243.659 13.264 243.847 12.872 243.935 12.384C244.031 11.896 244.079 11.292 244.079 10.572ZM246.418 8.28C246.418 7.736 246.582 7.304 246.91 6.984C247.238 6.656 247.658 6.492 248.17 6.492C248.682 6.492 249.102 6.656 249.43 6.984C249.758 7.304 249.922 7.736 249.922 8.28C249.922 8.832 249.758 9.272 249.43 9.6C249.102 9.92 248.682 10.08 248.17 10.08C247.658 10.08 247.238 9.92 246.91 9.6C246.582 9.272 246.418 8.832 246.418 8.28ZM253.426 6.624L248.566 15H247.486L252.346 6.624H253.426ZM248.17 7.164C247.898 7.164 247.682 7.26 247.522 7.452C247.37 7.636 247.294 7.912 247.294 8.28C247.294 8.648 247.37 8.928 247.522 9.12C247.682 9.312 247.898 9.408 248.17 9.408C248.442 9.408 248.658 9.312 248.818 9.12C248.978 8.92 249.058 8.64 249.058 8.28C249.058 7.912 248.978 7.636 248.818 7.452C248.658 7.26 248.442 7.164 248.17 7.164ZM251.014 13.344C251.014 12.792 251.178 12.356 251.506 12.036C251.834 11.708 252.254 11.544 252.766 11.544C253.278 11.544 253.694 11.708 254.014 12.036C254.342 12.356 254.506 12.792 254.506 13.344C254.506 13.888 254.342 14.324 254.014 14.652C253.694 14.98 253.278 15.144 252.766 15.144C252.254 15.144 251.834 14.984 251.506 14.664C251.178 14.336 251.014 13.896 251.014 13.344ZM252.754 12.228C252.482 12.228 252.266 12.324 252.106 12.516C251.946 12.7 251.866 12.976 251.866 13.344C251.866 13.704 251.946 13.98 252.106 14.172C252.266 14.356 252.482 14.448 252.754 14.448C253.026 14.448 253.242 14.356 253.402 14.172C253.562 13.98 253.642 13.704 253.642 13.344C253.642 12.976 253.562 12.7 253.402 12.516C253.242 12.324 253.026 12.228 252.754 12.228Z" fill="#2F2F2F" fill-opacity="0.6"/>
</svg>
