<svg width="257" height="182" viewBox="0 0 257 182" fill="none" xmlns="http://www.w3.org/2000/svg">
<g filter="url(#filter0_d_61_3056)">
<rect x="50" y="46" width="157" height="82" rx="15" fill="white" shape-rendering="crispEdges"/>
<g clip-path="url(#clip0_61_3056)">
<path d="M78 73.5C79.1046 73.5 80 72.6046 80 71.5C80 70.3954 79.1046 69.5 78 69.5C76.8954 69.5 76 70.3954 76 71.5C76 72.6046 76.8954 73.5 78 73.5Z" stroke="#323F47" stroke-width="1.5" stroke-linecap="round" stroke-linejoin="round"/>
<path d="M82.9337 73.5C82.8449 73.7011 82.8184 73.9242 82.8577 74.1404C82.8969 74.3567 83 74.5562 83.1537 74.7134L83.1937 74.7534C83.3176 74.8772 83.416 75.0242 83.4831 75.1861C83.5502 75.348 83.5847 75.5215 83.5847 75.6967C83.5847 75.8719 83.5502 76.0454 83.4831 76.2073C83.416 76.3691 83.3176 76.5162 83.1937 76.64C83.0698 76.764 82.9228 76.8623 82.7609 76.9294C82.599 76.9965 82.4255 77.0311 82.2503 77.0311C82.0751 77.0311 81.9016 76.9965 81.7397 76.9294C81.5779 76.8623 81.4308 76.764 81.307 76.64L81.267 76.6C81.1099 76.4463 80.9103 76.3432 80.6941 76.304C80.4778 76.2648 80.2547 76.2913 80.0537 76.38C79.8565 76.4645 79.6883 76.6049 79.5699 76.7837C79.4514 76.9626 79.3878 77.1722 79.387 77.3867V77.5C79.387 77.8536 79.2465 78.1928 78.9965 78.4428C78.7464 78.6929 78.4073 78.8334 78.0537 78.8334C77.7 78.8334 77.3609 78.6929 77.1109 78.4428C76.8608 78.1928 76.7203 77.8536 76.7203 77.5V77.44C76.7152 77.2194 76.6437 77.0054 76.5153 76.8258C76.3869 76.6463 76.2075 76.5095 76.0003 76.4334C75.7992 76.3446 75.5762 76.3181 75.3599 76.3574C75.1437 76.3966 74.9441 76.4997 74.787 76.6534L74.747 76.6934C74.6232 76.8173 74.4761 76.9157 74.3142 76.9828C74.1524 77.0499 73.9789 77.0844 73.8037 77.0844C73.6284 77.0844 73.4549 77.0499 73.2931 76.9828C73.1312 76.9157 72.9842 76.8173 72.8603 76.6934C72.7364 76.5695 72.638 76.4225 72.5709 76.2606C72.5038 76.0987 72.4693 75.9252 72.4693 75.75C72.4693 75.5748 72.5038 75.4013 72.5709 75.2394C72.638 75.0776 72.7364 74.9305 72.8603 74.8067L72.9003 74.7667C73.054 74.6096 73.1571 74.41 73.1963 74.1937C73.2355 73.9775 73.2091 73.7544 73.1203 73.5534C73.0358 73.3562 72.8955 73.188 72.7166 73.0696C72.5378 72.9511 72.3282 72.8875 72.1137 72.8867H72.0003C71.6467 72.8867 71.3076 72.7462 71.0575 72.4962C70.8075 72.2461 70.667 71.907 70.667 71.5534C70.667 71.1997 70.8075 70.8606 71.0575 70.6105C71.3076 70.3605 71.6467 70.22 72.0003 70.22H72.0603C72.281 70.2149 72.495 70.1434 72.6745 70.015C72.8541 69.8866 72.9908 69.7072 73.067 69.5C73.1557 69.2989 73.1822 69.0759 73.143 68.8596C73.1038 68.6434 73.0007 68.4438 72.847 68.2867L72.807 68.2467C72.683 68.1229 72.5847 67.9758 72.5176 67.8139C72.4505 67.6521 72.4159 67.4786 72.4159 67.3034C72.4159 67.1281 72.4505 66.9546 72.5176 66.7928C72.5847 66.6309 72.683 66.4839 72.807 66.36C72.9308 66.2361 73.0779 66.1377 73.2397 66.0706C73.4016 66.0035 73.5751 65.969 73.7503 65.969C73.9255 65.969 74.099 66.0035 74.2609 66.0706C74.4228 66.1377 74.5698 66.2361 74.6937 66.36L74.7337 66.4C74.8908 66.5537 75.0903 66.6568 75.3066 66.696C75.5229 66.7352 75.7459 66.7088 75.947 66.62H76.0003C76.1975 66.5355 76.3657 66.3952 76.4841 66.2163C76.6026 66.0375 76.6661 65.8279 76.667 65.6134V65.5C76.667 65.1464 76.8075 64.8073 77.0575 64.5572C77.3076 64.3072 77.6467 64.1667 78.0003 64.1667C78.3539 64.1667 78.6931 64.3072 78.9431 64.5572C79.1932 64.8073 79.3337 65.1464 79.3337 65.5V65.56C79.3345 65.7745 79.3981 65.9841 79.5165 66.163C79.635 66.3419 79.8031 66.4822 80.0003 66.5667C80.2014 66.6554 80.4245 66.6819 80.6407 66.6427C80.857 66.6035 81.0565 66.5004 81.2137 66.3467L81.2537 66.3067C81.3775 66.1827 81.5245 66.0844 81.6864 66.0173C81.8483 65.9502 82.0218 65.9156 82.197 65.9156C82.3722 65.9156 82.5457 65.9502 82.7076 66.0173C82.8694 66.0844 83.0165 66.1827 83.1403 66.3067C83.2643 66.4305 83.3626 66.5776 83.4297 66.7394C83.4968 66.9013 83.5314 67.0748 83.5314 67.25C83.5314 67.4252 83.4968 67.5987 83.4297 67.7606C83.3626 67.9225 83.2643 68.0695 83.1403 68.1934L83.1003 68.2334C82.9466 68.3905 82.8435 68.59 82.8043 68.8063C82.7651 69.0226 82.7916 69.2456 82.8803 69.4467V69.5C82.9648 69.6972 83.1052 69.8654 83.284 69.9838C83.4629 70.1023 83.6725 70.1658 83.887 70.1667H84.0003C84.3539 70.1667 84.6931 70.3072 84.9431 70.5572C85.1932 70.8073 85.3337 71.1464 85.3337 71.5C85.3337 71.8536 85.1932 72.1928 84.9431 72.4428C84.6931 72.6929 84.3539 72.8334 84.0003 72.8334H83.9403C83.7258 72.8342 83.5162 72.8978 83.3374 73.0162C83.1585 73.1347 83.0182 73.3028 82.9337 73.5Z" stroke="#323F47" stroke-width="1.5" stroke-linecap="round" stroke-linejoin="round"/>
</g>
<path d="M98.74 76.105C97.97 76.105 97.28 75.98 96.67 75.73C96.06 75.48 95.57 75.11 95.2 74.62C94.84 74.13 94.65 73.54 94.63 72.85H97.36C97.4 73.24 97.535 73.54 97.765 73.75C97.995 73.95 98.295 74.05 98.665 74.05C99.045 74.05 99.345 73.965 99.565 73.795C99.785 73.615 99.895 73.37 99.895 73.06C99.895 72.8 99.805 72.585 99.625 72.415C99.455 72.245 99.24 72.105 98.98 71.995C98.73 71.885 98.37 71.76 97.9 71.62C97.22 71.41 96.665 71.2 96.235 70.99C95.805 70.78 95.435 70.47 95.125 70.06C94.815 69.65 94.66 69.115 94.66 68.455C94.66 67.475 95.015 66.71 95.725 66.16C96.435 65.6 97.36 65.32 98.5 65.32C99.66 65.32 100.595 65.6 101.305 66.16C102.015 66.71 102.395 67.48 102.445 68.47H99.67C99.65 68.13 99.525 67.865 99.295 67.675C99.065 67.475 98.77 67.375 98.41 67.375C98.1 67.375 97.85 67.46 97.66 67.63C97.47 67.79 97.375 68.025 97.375 68.335C97.375 68.675 97.535 68.94 97.855 69.13C98.175 69.32 98.675 69.525 99.355 69.745C100.035 69.975 100.585 70.195 101.005 70.405C101.435 70.615 101.805 70.92 102.115 71.32C102.425 71.72 102.58 72.235 102.58 72.865C102.58 73.465 102.425 74.01 102.115 74.5C101.815 74.99 101.375 75.38 100.795 75.67C100.215 75.96 99.53 76.105 98.74 76.105ZM112.049 71.68C112.049 71.92 112.034 72.17 112.004 72.43H106.199C106.239 72.95 106.404 73.35 106.694 73.63C106.994 73.9 107.359 74.035 107.789 74.035C108.429 74.035 108.874 73.765 109.124 73.225H111.854C111.714 73.775 111.459 74.27 111.089 74.71C110.729 75.15 110.274 75.495 109.724 75.745C109.174 75.995 108.559 76.12 107.879 76.12C107.059 76.12 106.329 75.945 105.689 75.595C105.049 75.245 104.549 74.745 104.189 74.095C103.829 73.445 103.649 72.685 103.649 71.815C103.649 70.945 103.824 70.185 104.174 69.535C104.534 68.885 105.034 68.385 105.674 68.035C106.314 67.685 107.049 67.51 107.879 67.51C108.689 67.51 109.409 67.68 110.039 68.02C110.669 68.36 111.159 68.845 111.509 69.475C111.869 70.105 112.049 70.84 112.049 71.68ZM109.424 71.005C109.424 70.565 109.274 70.215 108.974 69.955C108.674 69.695 108.299 69.565 107.849 69.565C107.419 69.565 107.054 69.69 106.754 69.94C106.464 70.19 106.284 70.545 106.214 71.005H109.424ZM118.067 73.825V76H116.762C115.832 76 115.107 75.775 114.587 75.325C114.067 74.865 113.807 74.12 113.807 73.09V69.76H112.787V67.63H113.807V65.59H116.372V67.63H118.052V69.76H116.372V73.12C116.372 73.37 116.432 73.55 116.552 73.66C116.672 73.77 116.872 73.825 117.152 73.825H118.067ZM124.16 73.825V76H122.855C121.925 76 121.2 75.775 120.68 75.325C120.16 74.865 119.9 74.12 119.9 73.09V69.76H118.88V67.63H119.9V65.59H122.465V67.63H124.145V69.76H122.465V73.12C122.465 73.37 122.525 73.55 122.645 73.66C122.765 73.77 122.965 73.825 123.245 73.825H124.16ZM126.879 66.76C126.429 66.76 126.059 66.63 125.769 66.37C125.489 66.1 125.349 65.77 125.349 65.38C125.349 64.98 125.489 64.65 125.769 64.39C126.059 64.12 126.429 63.985 126.879 63.985C127.319 63.985 127.679 64.12 127.959 64.39C128.249 64.65 128.394 64.98 128.394 65.38C128.394 65.77 128.249 66.1 127.959 66.37C127.679 66.63 127.319 66.76 126.879 66.76ZM128.154 67.63V76H125.589V67.63H128.154ZM135.113 67.54C136.093 67.54 136.873 67.86 137.453 68.5C138.043 69.13 138.338 70 138.338 71.11V76H135.788V71.455C135.788 70.895 135.643 70.46 135.353 70.15C135.063 69.84 134.673 69.685 134.183 69.685C133.693 69.685 133.303 69.84 133.013 70.15C132.723 70.46 132.578 70.895 132.578 71.455V76H130.013V67.63H132.578V68.74C132.838 68.37 133.188 68.08 133.628 67.87C134.068 67.65 134.563 67.54 135.113 67.54ZM143.3 67.51C143.89 67.51 144.405 67.63 144.845 67.87C145.295 68.11 145.64 68.425 145.88 68.815V67.63H148.445V75.985C148.445 76.755 148.29 77.45 147.98 78.07C147.68 78.7 147.215 79.2 146.585 79.57C145.965 79.94 145.19 80.125 144.26 80.125C143.02 80.125 142.015 79.83 141.245 79.24C140.475 78.66 140.035 77.87 139.925 76.87H142.46C142.54 77.19 142.73 77.44 143.03 77.62C143.33 77.81 143.7 77.905 144.14 77.905C144.67 77.905 145.09 77.75 145.4 77.44C145.72 77.14 145.88 76.655 145.88 75.985V74.8C145.63 75.19 145.285 75.51 144.845 75.76C144.405 76 143.89 76.12 143.3 76.12C142.61 76.12 141.985 75.945 141.425 75.595C140.865 75.235 140.42 74.73 140.09 74.08C139.77 73.42 139.61 72.66 139.61 71.8C139.61 70.94 139.77 70.185 140.09 69.535C140.42 68.885 140.865 68.385 141.425 68.035C141.985 67.685 142.61 67.51 143.3 67.51ZM145.88 71.815C145.88 71.175 145.7 70.67 145.34 70.3C144.99 69.93 144.56 69.745 144.05 69.745C143.54 69.745 143.105 69.93 142.745 70.3C142.395 70.66 142.22 71.16 142.22 71.8C142.22 72.44 142.395 72.95 142.745 73.33C143.105 73.7 143.54 73.885 144.05 73.885C144.56 73.885 144.99 73.7 145.34 73.33C145.7 72.96 145.88 72.455 145.88 71.815Z" fill="#323F47"/>
<path d="M76 108.5H73.3333C72.9797 108.5 72.6406 108.36 72.3905 108.109C72.1405 107.859 72 107.52 72 107.167V97.8333C72 97.4797 72.1405 97.1406 72.3905 96.8905C72.6406 96.6405 72.9797 96.5 73.3333 96.5H76" stroke="#323F47" stroke-opacity="0.4" stroke-width="1.5" stroke-linecap="round" stroke-linejoin="round"/>
<path d="M80.667 105.833L84.0003 102.5L80.667 99.1666" stroke="#323F47" stroke-opacity="0.4" stroke-width="1.5" stroke-linecap="round" stroke-linejoin="round"/>
<path d="M84 102.5H76" stroke="#323F47" stroke-opacity="0.4" stroke-width="1.5" stroke-linecap="round" stroke-linejoin="round"/>
<path d="M97.495 105.02H100.855V107H94.93V96.47H97.495V105.02ZM105.888 107.12C105.068 107.12 104.328 106.945 103.668 106.595C103.018 106.245 102.503 105.745 102.123 105.095C101.753 104.445 101.568 103.685 101.568 102.815C101.568 101.955 101.758 101.2 102.138 100.55C102.518 99.89 103.038 99.385 103.698 99.035C104.358 98.685 105.098 98.51 105.918 98.51C106.738 98.51 107.478 98.685 108.138 99.035C108.798 99.385 109.318 99.89 109.698 100.55C110.078 101.2 110.268 101.955 110.268 102.815C110.268 103.675 110.073 104.435 109.683 105.095C109.303 105.745 108.778 106.245 108.108 106.595C107.448 106.945 106.708 107.12 105.888 107.12ZM105.888 104.9C106.378 104.9 106.793 104.72 107.133 104.36C107.483 104 107.658 103.485 107.658 102.815C107.658 102.145 107.488 101.63 107.148 101.27C106.818 100.91 106.408 100.73 105.918 100.73C105.418 100.73 105.003 100.91 104.673 101.27C104.343 101.62 104.178 102.135 104.178 102.815C104.178 103.485 104.338 104 104.658 104.36C104.988 104.72 105.398 104.9 105.888 104.9ZM114.809 98.51C115.399 98.51 115.914 98.63 116.354 98.87C116.804 99.11 117.149 99.425 117.389 99.815V98.63H119.954V106.985C119.954 107.755 119.799 108.45 119.489 109.07C119.189 109.7 118.724 110.2 118.094 110.57C117.474 110.94 116.699 111.125 115.769 111.125C114.529 111.125 113.524 110.83 112.754 110.24C111.984 109.66 111.544 108.87 111.434 107.87H113.969C114.049 108.19 114.239 108.44 114.539 108.62C114.839 108.81 115.209 108.905 115.649 108.905C116.179 108.905 116.599 108.75 116.909 108.44C117.229 108.14 117.389 107.655 117.389 106.985V105.8C117.139 106.19 116.794 106.51 116.354 106.76C115.914 107 115.399 107.12 114.809 107.12C114.119 107.12 113.494 106.945 112.934 106.595C112.374 106.235 111.929 105.73 111.599 105.08C111.279 104.42 111.119 103.66 111.119 102.8C111.119 101.94 111.279 101.185 111.599 100.535C111.929 99.885 112.374 99.385 112.934 99.035C113.494 98.685 114.119 98.51 114.809 98.51ZM117.389 102.815C117.389 102.175 117.209 101.67 116.849 101.3C116.499 100.93 116.069 100.745 115.559 100.745C115.049 100.745 114.614 100.93 114.254 101.3C113.904 101.66 113.729 102.16 113.729 102.8C113.729 103.44 113.904 103.95 114.254 104.33C114.614 104.7 115.049 104.885 115.559 104.885C116.069 104.885 116.499 104.7 116.849 104.33C117.209 103.96 117.389 103.455 117.389 102.815ZM128.799 107.12C127.979 107.12 127.239 106.945 126.579 106.595C125.929 106.245 125.414 105.745 125.034 105.095C124.664 104.445 124.479 103.685 124.479 102.815C124.479 101.955 124.669 101.2 125.049 100.55C125.429 99.89 125.949 99.385 126.609 99.035C127.269 98.685 128.009 98.51 128.829 98.51C129.649 98.51 130.389 98.685 131.049 99.035C131.709 99.385 132.229 99.89 132.609 100.55C132.989 101.2 133.179 101.955 133.179 102.815C133.179 103.675 132.984 104.435 132.594 105.095C132.214 105.745 131.689 106.245 131.019 106.595C130.359 106.945 129.619 107.12 128.799 107.12ZM128.799 104.9C129.289 104.9 129.704 104.72 130.044 104.36C130.394 104 130.569 103.485 130.569 102.815C130.569 102.145 130.399 101.63 130.059 101.27C129.729 100.91 129.319 100.73 128.829 100.73C128.329 100.73 127.914 100.91 127.584 101.27C127.254 101.62 127.089 102.135 127.089 102.815C127.089 103.485 127.249 104 127.569 104.36C127.899 104.72 128.309 104.9 128.799 104.9ZM142.804 98.63V107H140.239V105.86C139.979 106.23 139.624 106.53 139.174 106.76C138.734 106.98 138.244 107.09 137.704 107.09C137.064 107.09 136.499 106.95 136.009 106.67C135.519 106.38 135.139 105.965 134.869 105.425C134.599 104.885 134.464 104.25 134.464 103.52V98.63H137.014V103.175C137.014 103.735 137.159 104.17 137.449 104.48C137.739 104.79 138.129 104.945 138.619 104.945C139.119 104.945 139.514 104.79 139.804 104.48C140.094 104.17 140.239 103.735 140.239 103.175V98.63H142.804ZM149.312 104.825V107H148.007C147.077 107 146.352 106.775 145.832 106.325C145.312 105.865 145.052 105.12 145.052 104.09V100.76H144.032V98.63H145.052V96.59H147.617V98.63H149.297V100.76H147.617V104.12C147.617 104.37 147.677 104.55 147.797 104.66C147.917 104.77 148.117 104.825 148.397 104.825H149.312Z" fill="#323F47" fill-opacity="0.4"/>
</g>
<defs>
<filter id="filter0_d_61_3056" x="0" y="0" width="257" height="182" filterUnits="userSpaceOnUse" color-interpolation-filters="sRGB">
<feFlood flood-opacity="0" result="BackgroundImageFix"/>
<feColorMatrix in="SourceAlpha" type="matrix" values="0 0 0 0 0 0 0 0 0 0 0 0 0 0 0 0 0 0 127 0" result="hardAlpha"/>
<feOffset dy="4"/>
<feGaussianBlur stdDeviation="25"/>
<feComposite in2="hardAlpha" operator="out"/>
<feColorMatrix type="matrix" values="0 0 0 0 0 0 0 0 0 0 0 0 0 0 0 0 0 0 0.1 0"/>
<feBlend mode="normal" in2="BackgroundImageFix" result="effect1_dropShadow_61_3056"/>
<feBlend mode="normal" in="SourceGraphic" in2="effect1_dropShadow_61_3056" result="shape"/>
</filter>
<clipPath id="clip0_61_3056">
<rect width="16" height="16" fill="white" transform="translate(70 63.5)"/>
</clipPath>
</defs>
</svg>
