<svg aria-hidden="true" style="position: absolute; width: 0; height: 0; overflow: hidden;" version="1.1" xmlns="http://www.w3.org/2000/svg" xmlns:xlink="http://www.w3.org/1999/xlink">
<defs>
<symbol id="icon-circle" viewBox="0 0 32 32">
<path stroke-linejoin="miter" stroke-linecap="butt" stroke-miterlimit="4" stroke-width="2.6667" d="M30.667 16c0 8.1-6.567 14.667-14.667 14.667s-14.667-6.566-14.667-14.667c0-8.1 6.566-14.667 14.667-14.667s14.667 6.566 14.667 14.667z"></path>
</symbol>
<symbol id="icon-drop-down" viewBox="0 0 45 32">
<path fill="#fff" style="fill: var(--color1, #fff)" d="M11.429 8.088h22.33c1.457 0 2.637 1.181 2.637 2.637v9.143c0 1.457-1.181 2.637-2.637 2.637h-22.33c-1.457 0-2.637-1.181-2.637-2.637v-9.143c0-1.457 1.181-2.637 2.637-2.637z"></path>
<path fill="#323f47" style="fill: var(--color2, #323f47)" d="M17.361 13.381c-0.135 0-0.257-0.022-0.364-0.066s-0.193-0.109-0.258-0.195c-0.063-0.086-0.097-0.19-0.1-0.311h0.48c0.007 0.069 0.031 0.121 0.071 0.158 0.040 0.035 0.093 0.053 0.158 0.053 0.067 0 0.12-0.015 0.158-0.045 0.039-0.032 0.058-0.075 0.058-0.129 0-0.046-0.016-0.084-0.047-0.113-0.030-0.030-0.068-0.055-0.113-0.074-0.044-0.019-0.107-0.041-0.19-0.066-0.12-0.037-0.217-0.074-0.293-0.111s-0.141-0.091-0.195-0.164c-0.055-0.072-0.082-0.166-0.082-0.282 0-0.172 0.062-0.307 0.187-0.404 0.125-0.098 0.287-0.148 0.488-0.148 0.204 0 0.368 0.049 0.493 0.148 0.125 0.097 0.192 0.232 0.2 0.406h-0.488c-0.004-0.060-0.026-0.106-0.066-0.14-0.040-0.035-0.092-0.053-0.156-0.053-0.055 0-0.098 0.015-0.132 0.045-0.033 0.028-0.050 0.069-0.050 0.124 0 0.060 0.028 0.106 0.084 0.14s0.144 0.069 0.264 0.108c0.12 0.040 0.216 0.079 0.29 0.116 0.076 0.037 0.141 0.091 0.195 0.161s0.082 0.161 0.082 0.272c0 0.105-0.027 0.201-0.082 0.287-0.053 0.086-0.13 0.155-0.232 0.206s-0.222 0.076-0.361 0.076zM19.701 12.603c0 0.042-0.003 0.086-0.008 0.132h-1.021c0.007 0.091 0.036 0.162 0.087 0.211 0.053 0.047 0.117 0.071 0.193 0.071 0.113 0 0.191-0.047 0.235-0.142h0.48c-0.025 0.097-0.069 0.184-0.134 0.261-0.063 0.077-0.143 0.138-0.24 0.182s-0.205 0.066-0.324 0.066c-0.144 0-0.273-0.031-0.385-0.092s-0.2-0.149-0.264-0.264c-0.063-0.114-0.095-0.248-0.095-0.401s0.031-0.287 0.092-0.401c0.063-0.114 0.151-0.202 0.264-0.264s0.242-0.092 0.388-0.092c0.142 0 0.269 0.030 0.38 0.090s0.197 0.145 0.258 0.256c0.063 0.111 0.095 0.24 0.095 0.388zM19.239 12.484c0-0.077-0.026-0.139-0.079-0.185s-0.119-0.069-0.198-0.069c-0.076 0-0.14 0.022-0.193 0.066-0.051 0.044-0.083 0.106-0.095 0.187h0.564zM20.759 12.98v0.382h-0.229c-0.164 0-0.291-0.040-0.382-0.119-0.091-0.081-0.137-0.212-0.137-0.393v-0.585h-0.179v-0.374h0.179v-0.359h0.451v0.359h0.295v0.374h-0.295v0.591c0 0.044 0.011 0.076 0.032 0.095s0.056 0.029 0.105 0.029h0.161zM21.83 12.98v0.382h-0.229c-0.164 0-0.291-0.040-0.382-0.119-0.091-0.081-0.137-0.212-0.137-0.393v-0.585h-0.179v-0.374h0.179v-0.359h0.451v0.359h0.295v0.374h-0.295v0.591c0 0.044 0.011 0.076 0.032 0.095s0.056 0.029 0.105 0.029h0.161zM22.308 11.738c-0.079 0-0.144-0.023-0.195-0.069-0.049-0.047-0.074-0.105-0.074-0.174 0-0.070 0.025-0.128 0.074-0.174 0.051-0.047 0.116-0.071 0.195-0.071 0.077 0 0.141 0.024 0.19 0.071 0.051 0.046 0.076 0.104 0.076 0.174 0 0.069-0.026 0.127-0.076 0.174-0.049 0.046-0.113 0.069-0.19 0.069zM22.533 11.891v1.472h-0.451v-1.472h0.451zM23.756 11.875c0.172 0 0.309 0.056 0.411 0.169 0.104 0.111 0.156 0.264 0.156 0.459v0.86h-0.448v-0.799c0-0.098-0.026-0.175-0.076-0.229s-0.12-0.082-0.206-0.082c-0.086 0-0.155 0.027-0.206 0.082s-0.076 0.131-0.076 0.229v0.799h-0.451v-1.472h0.451v0.195c0.046-0.065 0.107-0.116 0.185-0.153 0.077-0.039 0.164-0.058 0.261-0.058zM25.196 11.87c0.104 0 0.194 0.021 0.272 0.063 0.079 0.042 0.14 0.098 0.182 0.166v-0.208h0.451v1.469c0 0.135-0.027 0.258-0.082 0.367-0.053 0.111-0.134 0.199-0.245 0.264-0.109 0.065-0.245 0.098-0.409 0.098-0.218 0-0.395-0.052-0.53-0.156-0.135-0.102-0.213-0.241-0.232-0.417h0.446c0.014 0.056 0.047 0.1 0.1 0.132 0.053 0.033 0.118 0.050 0.195 0.050 0.093 0 0.167-0.027 0.222-0.082 0.056-0.053 0.084-0.138 0.084-0.256v-0.208c-0.044 0.069-0.105 0.125-0.182 0.169-0.077 0.042-0.168 0.063-0.272 0.063-0.121 0-0.231-0.031-0.33-0.092-0.098-0.063-0.177-0.152-0.235-0.266-0.056-0.116-0.084-0.25-0.084-0.401s0.028-0.284 0.084-0.398c0.058-0.114 0.136-0.202 0.235-0.264s0.208-0.092 0.33-0.092zM25.649 12.627c0-0.113-0.032-0.201-0.095-0.266-0.062-0.065-0.137-0.098-0.227-0.098s-0.166 0.033-0.229 0.098c-0.062 0.063-0.092 0.151-0.092 0.264s0.031 0.202 0.092 0.269c0.063 0.065 0.14 0.098 0.229 0.098s0.165-0.033 0.227-0.098c0.063-0.065 0.095-0.154 0.095-0.266z"></path>
<path fill="#323f47" style="fill: var(--color2, #323f47)" opacity="0.4" d="M17.142 18.465h0.591v0.348h-1.042v-1.851h0.451v1.503zM18.618 18.834c-0.144 0-0.274-0.031-0.39-0.092-0.114-0.062-0.205-0.149-0.272-0.264-0.065-0.114-0.098-0.248-0.098-0.401 0-0.151 0.033-0.284 0.1-0.398 0.067-0.116 0.158-0.205 0.274-0.266s0.246-0.092 0.39-0.092c0.144 0 0.274 0.031 0.39 0.092s0.207 0.15 0.274 0.266c0.067 0.114 0.1 0.247 0.1 0.398s-0.034 0.285-0.103 0.401c-0.067 0.114-0.159 0.202-0.277 0.264-0.116 0.062-0.246 0.092-0.39 0.092zM18.618 18.444c0.086 0 0.159-0.032 0.219-0.095 0.062-0.063 0.092-0.154 0.092-0.272s-0.030-0.208-0.090-0.272c-0.058-0.063-0.13-0.095-0.216-0.095-0.088 0-0.161 0.032-0.219 0.095-0.058 0.062-0.087 0.152-0.087 0.272 0 0.118 0.028 0.208 0.084 0.272 0.058 0.063 0.13 0.095 0.216 0.095zM20.186 17.32c0.104 0 0.194 0.021 0.272 0.063 0.079 0.042 0.14 0.098 0.182 0.166v-0.208h0.451v1.469c0 0.135-0.027 0.258-0.082 0.367-0.053 0.111-0.134 0.199-0.245 0.264-0.109 0.065-0.245 0.098-0.409 0.098-0.218 0-0.395-0.052-0.53-0.156-0.135-0.102-0.213-0.241-0.232-0.417h0.446c0.014 0.056 0.047 0.1 0.1 0.132 0.053 0.033 0.118 0.050 0.195 0.050 0.093 0 0.167-0.027 0.222-0.082 0.056-0.053 0.084-0.138 0.084-0.256v-0.208c-0.044 0.069-0.105 0.125-0.182 0.169-0.077 0.042-0.168 0.063-0.272 0.063-0.121 0-0.231-0.031-0.33-0.092-0.098-0.063-0.177-0.152-0.235-0.266-0.056-0.116-0.084-0.25-0.084-0.401s0.028-0.284 0.084-0.398c0.058-0.114 0.136-0.202 0.235-0.264s0.208-0.092 0.33-0.092zM20.64 18.077c0-0.113-0.032-0.201-0.095-0.266-0.062-0.065-0.137-0.098-0.227-0.098s-0.166 0.033-0.229 0.098c-0.062 0.063-0.092 0.151-0.092 0.264s0.031 0.202 0.092 0.269c0.063 0.065 0.14 0.098 0.229 0.098s0.165-0.033 0.227-0.098c0.063-0.065 0.095-0.154 0.095-0.266zM22.646 18.834c-0.144 0-0.274-0.031-0.39-0.092-0.114-0.062-0.205-0.149-0.272-0.264-0.065-0.114-0.098-0.248-0.098-0.401 0-0.151 0.033-0.284 0.1-0.398 0.067-0.116 0.158-0.205 0.274-0.266s0.246-0.092 0.39-0.092c0.144 0 0.274 0.031 0.39 0.092s0.207 0.15 0.274 0.266c0.067 0.114 0.1 0.247 0.1 0.398s-0.034 0.285-0.103 0.401c-0.067 0.114-0.159 0.202-0.277 0.264-0.116 0.062-0.246 0.092-0.39 0.092zM22.646 18.444c0.086 0 0.159-0.032 0.219-0.095 0.062-0.063 0.092-0.154 0.092-0.272s-0.030-0.208-0.090-0.272c-0.058-0.063-0.13-0.095-0.216-0.095-0.088 0-0.161 0.032-0.219 0.095-0.058 0.062-0.087 0.152-0.087 0.272 0 0.118 0.028 0.208 0.084 0.272 0.058 0.063 0.13 0.095 0.216 0.095zM25.108 17.342v1.472h-0.451v-0.2c-0.046 0.065-0.108 0.118-0.187 0.158-0.077 0.039-0.164 0.058-0.258 0.058-0.113 0-0.212-0.025-0.298-0.074-0.086-0.051-0.153-0.124-0.2-0.219s-0.071-0.207-0.071-0.335v-0.86h0.448v0.799c0 0.098 0.026 0.175 0.076 0.229s0.12 0.082 0.206 0.082c0.088 0 0.157-0.027 0.208-0.082s0.076-0.131 0.076-0.229v-0.799h0.451zM26.253 18.431v0.382h-0.229c-0.164 0-0.291-0.040-0.382-0.119-0.091-0.081-0.137-0.212-0.137-0.393v-0.585h-0.179v-0.375h0.179v-0.359h0.451v0.359h0.295v0.375h-0.295v0.591c0 0.044 0.011 0.076 0.032 0.095s0.056 0.029 0.105 0.029h0.161z"></path>
</symbol>
<symbol id="icon-edit-2" viewBox="0 0 32 32">
<path stroke-linejoin="round" stroke-linecap="round" stroke-miterlimit="4" stroke-width="3.6" d="M22.666 4c0.35-0.35 0.766-0.628 1.223-0.817s0.948-0.287 1.443-0.287c0.495 0 0.986 0.098 1.443 0.287s0.873 0.467 1.224 0.817 0.628 0.766 0.817 1.223c0.19 0.458 0.287 0.948 0.287 1.443s-0.098 0.986-0.287 1.443c-0.189 0.458-0.467 0.873-0.817 1.223l-18 18-7.333 2 2-7.333 18-18z"></path>
</symbol>
<symbol id="icon-eye" viewBox="0 0 32 32">
<path stroke-linejoin="round" stroke-linecap="round" stroke-miterlimit="4" stroke-width="2.88" d="M1.333 16c0 0 5.333-10.667 14.667-10.667s14.667 10.667 14.667 10.667c0 0-5.333 10.667-14.667 10.667s-14.667-10.667-14.667-10.667z"></path>
<path stroke-linejoin="round" stroke-linecap="round" stroke-miterlimit="4" stroke-width="2.88" d="M16 20c2.209 0 4-1.791 4-4s-1.791-4-4-4c-2.209 0-4 1.791-4 4s1.791 4 4 4z"></path>
</symbol>
<symbol id="icon-eye-off" viewBox="0 0 32 32">
<path stroke-linejoin="round" stroke-linecap="round" stroke-miterlimit="4" stroke-width="2.88" d="M23.92 23.92c-2.279 1.737-5.055 2.7-7.92 2.747-9.333 0-14.667-10.667-14.667-10.667 1.659-3.091 3.959-5.791 6.747-7.92M13.2 5.653c0.918-0.215 1.857-0.322 2.8-0.32 9.333 0 14.667 10.667 14.667 10.667-0.809 1.514-1.775 2.94-2.88 4.253M18.826 18.827c-0.366 0.393-0.808 0.708-1.298 0.927s-1.020 0.336-1.557 0.346-1.071-0.089-1.569-0.291c-0.498-0.201-0.951-0.5-1.33-0.88s-0.679-0.832-0.88-1.33c-0.201-0.498-0.3-1.032-0.29-1.569s0.127-1.067 0.346-1.557 0.534-0.932 0.927-1.298"></path>
<path stroke-linejoin="round" stroke-linecap="round" stroke-miterlimit="4" stroke-width="2.88" d="M1.333 1.333l29.333 29.333"></path>
</symbol>
<symbol id="icon-log-out" viewBox="0 0 32 32">
<path stroke-linejoin="round" stroke-linecap="round" stroke-miterlimit="4" stroke-width="3" d="M12 28h-5.333c-0.707 0-1.386-0.281-1.886-0.781s-0.781-1.178-0.781-1.886v-18.667c0-0.707 0.281-1.386 0.781-1.886s1.178-0.781 1.886-0.781h5.333"></path>
<path stroke-linejoin="round" stroke-linecap="round" stroke-miterlimit="4" stroke-width="3" d="M21.334 22.667l6.667-6.667-6.667-6.667"></path>
<path stroke-linejoin="round" stroke-linecap="round" stroke-miterlimit="4" stroke-width="3" d="M28 16h-16"></path>
</symbol>
<symbol id="icon-minus" viewBox="0 0 32 32">
<path stroke-linejoin="miter" stroke-linecap="butt" stroke-miterlimit="4" stroke-width="1.1163" d="M16 0.558c8.528 0 15.442 6.914 15.442 15.442s-6.914 15.442-15.442 15.442c-8.528 0-15.442-6.914-15.442-15.442s6.914-15.442 15.442-15.442z"></path>
<path stroke-linejoin="round" stroke-linecap="round" stroke-miterlimit="4" stroke-width="1.3395" d="M10.286 16h11.429"></path>
</symbol>
<symbol id="icon-pie-chart-02" viewBox="0 0 32 32">
<path stroke-linejoin="round" stroke-linecap="round" stroke-miterlimit="4" stroke-width="2.6667" d="M22.933 18.667c0.369 0 0.554 0 0.704 0.082 0.123 0.068 0.238 0.195 0.293 0.324 0.067 0.157 0.050 0.324 0.016 0.659-0.174 1.733-0.77 3.404-1.744 4.861-1.172 1.754-2.838 3.121-4.787 3.929s-4.094 1.019-6.163 0.607c-2.069-0.412-3.97-1.428-5.462-2.919s-2.508-3.392-2.919-5.461c-0.412-2.069-0.2-4.214 0.607-6.163s2.175-3.615 3.929-4.787c1.457-0.974 3.128-1.57 4.861-1.744 0.334-0.034 0.502-0.050 0.659 0.016 0.13 0.055 0.257 0.17 0.324 0.293 0.082 0.15 0.082 0.334 0.082 0.704v8.533c0 0.373 0 0.56 0.073 0.703 0.064 0.125 0.166 0.227 0.291 0.291 0.143 0.073 0.329 0.073 0.703 0.073h8.533z"></path>
<path stroke-linejoin="round" stroke-linecap="round" stroke-miterlimit="4" stroke-width="2.6667" d="M18.667 3.733c0-0.369 0-0.554 0.082-0.704 0.068-0.123 0.195-0.238 0.324-0.293 0.157-0.067 0.324-0.050 0.659-0.016 2.438 0.245 4.73 1.323 6.478 3.071s2.826 4.040 3.071 6.478c0.033 0.334 0.050 0.502-0.016 0.659-0.055 0.13-0.17 0.257-0.293 0.324-0.15 0.082-0.334 0.082-0.704 0.082h-8.533c-0.373 0-0.56 0-0.703-0.073-0.125-0.064-0.227-0.166-0.291-0.291-0.073-0.143-0.073-0.329-0.073-0.703v-8.533z"></path>
</symbol>
<symbol id="icon-plus" viewBox="0 0 32 32">
<path stroke-linejoin="miter" stroke-linecap="butt" stroke-miterlimit="4" stroke-width="1.1163" d="M16 0.558c8.528 0 15.442 6.914 15.442 15.442s-6.914 15.442-15.442 15.442c-8.528 0-15.442-6.914-15.442-15.442s6.914-15.442 15.442-15.442z"></path>
<path stroke-linejoin="round" stroke-linecap="round" stroke-miterlimit="4" stroke-width="1.3395" d="M16 10.286v11.429"></path>
<path stroke-linejoin="round" stroke-linecap="round" stroke-miterlimit="4" stroke-width="1.3395" d="M10.286 16h11.429"></path>
</symbol>
<symbol id="icon-settings" viewBox="0 0 32 32">
<path stroke-linejoin="round" stroke-linecap="round" stroke-miterlimit="4" stroke-width="3" d="M16 20c2.209 0 4-1.791 4-4s-1.791-4-4-4c-2.209 0-4 1.791-4 4s1.791 4 4 4z"></path>
<path stroke-linejoin="round" stroke-linecap="round" stroke-miterlimit="4" stroke-width="3" d="M25.867 20c-0.178 0.402-0.231 0.848-0.152 1.281s0.285 0.832 0.592 1.146l0.080 0.080c0.248 0.248 0.445 0.542 0.579 0.865s0.203 0.671 0.203 1.021c0 0.35-0.069 0.697-0.203 1.021s-0.331 0.618-0.579 0.865c-0.248 0.248-0.542 0.445-0.866 0.579s-0.671 0.203-1.021 0.203c-0.35 0-0.697-0.069-1.021-0.203s-0.618-0.331-0.865-0.579l-0.080-0.080c-0.314-0.307-0.713-0.514-1.146-0.592s-0.879-0.025-1.281 0.152c-0.394 0.169-0.731 0.45-0.968 0.807s-0.364 0.777-0.366 1.206v0.227c0 0.707-0.281 1.386-0.781 1.886s-1.178 0.781-1.886 0.781-1.386-0.281-1.886-0.781c-0.5-0.5-0.781-1.178-0.781-1.886v-0.12c-0.010-0.441-0.153-0.869-0.41-1.228s-0.616-0.633-1.030-0.785c-0.402-0.178-0.848-0.231-1.281-0.152s-0.832 0.285-1.146 0.592l-0.080 0.080c-0.248 0.248-0.542 0.445-0.865 0.579s-0.671 0.203-1.021 0.203c-0.35 0-0.697-0.069-1.021-0.203s-0.618-0.331-0.865-0.579c-0.248-0.248-0.445-0.542-0.579-0.866s-0.203-0.671-0.203-1.021c0-0.35 0.069-0.697 0.203-1.021s0.331-0.618 0.579-0.865l0.080-0.080c0.307-0.314 0.514-0.713 0.592-1.146s0.025-0.879-0.152-1.281c-0.169-0.394-0.45-0.731-0.807-0.968s-0.777-0.364-1.206-0.366h-0.227c-0.707 0-1.386-0.281-1.886-0.781s-0.781-1.178-0.781-1.886c0-0.707 0.281-1.386 0.781-1.886s1.178-0.781 1.886-0.781h0.12c0.441-0.010 0.869-0.153 1.228-0.41s0.633-0.616 0.785-1.030c0.178-0.402 0.23-0.848 0.152-1.281s-0.285-0.832-0.592-1.146l-0.080-0.080c-0.248-0.248-0.445-0.542-0.579-0.866s-0.203-0.671-0.203-1.021c0-0.35 0.069-0.697 0.203-1.021s0.331-0.618 0.579-0.865c0.248-0.248 0.542-0.445 0.865-0.579s0.671-0.203 1.021-0.203c0.35 0 0.697 0.069 1.021 0.203s0.618 0.331 0.866 0.579l0.080 0.080c0.314 0.307 0.713 0.514 1.146 0.592s0.879 0.025 1.281-0.152h0.107c0.394-0.169 0.731-0.45 0.968-0.807s0.364-0.777 0.366-1.206v-0.227c0-0.707 0.281-1.386 0.781-1.886s1.178-0.781 1.886-0.781c0.707 0 1.386 0.281 1.886 0.781s0.781 1.178 0.781 1.886v0.12c0.002 0.429 0.129 0.848 0.366 1.206s0.573 0.638 0.968 0.807c0.402 0.177 0.848 0.23 1.281 0.152s0.832-0.285 1.146-0.592l0.080-0.080c0.248-0.248 0.542-0.445 0.865-0.579s0.671-0.203 1.021-0.203c0.35 0 0.697 0.069 1.021 0.203s0.618 0.331 0.865 0.579c0.248 0.248 0.445 0.542 0.579 0.865s0.203 0.671 0.203 1.021c0 0.35-0.069 0.697-0.203 1.021s-0.331 0.618-0.579 0.865l-0.080 0.080c-0.307 0.314-0.514 0.713-0.592 1.146s-0.025 0.879 0.152 1.281v0.107c0.169 0.394 0.45 0.731 0.807 0.968s0.777 0.364 1.206 0.366h0.227c0.707 0 1.386 0.281 1.886 0.781s0.781 1.178 0.781 1.886-0.281 1.386-0.781 1.886c-0.5 0.5-1.178 0.781-1.886 0.781h-0.12c-0.429 0.002-0.848 0.129-1.206 0.366s-0.638 0.573-0.807 0.968z"></path>
</symbol>
<symbol id="icon-trash-04" viewBox="0 0 32 32">
<path stroke-linejoin="round" stroke-linecap="round" stroke-miterlimit="4" stroke-width="3" d="M12 4h8"></path>
<path stroke-linejoin="round" stroke-linecap="round" stroke-miterlimit="4" stroke-width="3.6" d="M4 8h24M25.333 8l-0.935 14.026c-0.14 2.104-0.21 3.156-0.665 3.954-0.4 0.702-1.004 1.267-1.731 1.62-0.826 0.4-1.881 0.4-3.99 0.4h-4.025c-2.109 0-3.163 0-3.99-0.4-0.727-0.353-1.331-0.917-1.731-1.62-0.455-0.798-0.525-1.85-0.665-3.954l-0.935-14.026"></path>
</symbol>
<symbol id="icon-upload" viewBox="0 0 32 32">
<path stroke-linejoin="round" stroke-linecap="round" stroke-miterlimit="4" stroke-width="2.88" d="M28 20v5.333c0 0.707-0.281 1.386-0.781 1.886s-1.178 0.781-1.886 0.781h-18.667c-0.707 0-1.386-0.281-1.886-0.781s-0.781-1.178-0.781-1.886v-5.333"></path>
<path stroke-linejoin="round" stroke-linecap="round" stroke-miterlimit="4" stroke-width="2.88" d="M22.666 10.667l-6.667-6.667-6.667 6.667"></path>
<path stroke-linejoin="round" stroke-linecap="round" stroke-miterlimit="4" stroke-width="2.88" d="M16 4v16"></path>
</symbol>
<symbol id="icon-water-glass" viewBox="0 0 31 32">
<path d="M26.955 5.226c-0.095-0.321-0.254-0.616-0.468-0.868s-0.477-0.452-0.772-0.589c-0.293-0.142-0.613-0.214-0.937-0.21h-18.216c-0.323-0.019-0.646 0.049-0.937 0.197-0.301 0.139-0.57 0.345-0.785 0.604-0.214 0.251-0.374 0.546-0.468 0.866-0.098 0.318-0.128 0.654-0.089 0.984l2.076 18.377c0.139 1.258 0.722 2.415 1.633 3.255 0.891 0.839 2.050 1.307 3.253 1.313h8.861c1.207-0.005 2.37-0.473 3.266-1.313 0.899-0.848 1.475-2.004 1.62-3.255l1.127-10.331v-0.158l0.873-7.876c0.049-0.332 0.036-0.671-0.038-0.998zM14.17 25.375h-1.266c-0.82-0.047-1.601-0.38-2.215-0.945-0.612-0.572-1.015-1.347-1.139-2.192l-0.304-2.258c-0.039-0.344 0.053-0.691 0.258-0.965s0.504-0.455 0.835-0.503 0.667 0.040 0.936 0.246c0.269 0.206 0.45 0.512 0.503 0.854l0.304 2.232c0.034 0.244 0.151 0.467 0.329 0.63 0.177 0.168 0.406 0.266 0.646 0.276h1.266c0.336 0 0.658 0.138 0.895 0.384s0.371 0.58 0.371 0.928-0.133 0.682-0.371 0.928c-0.237 0.246-0.559 0.384-0.895 0.384h-0.152zM24.297 13.259c-2.671 0.538-4.949 0.643-7.367-1.313-3-2.455-6.633-1.667-10.127-0.381l-0.633-5.566c-0.012-0.056-0.012-0.114 0-0.171 0.017-0.055 0.048-0.105 0.089-0.144 0.030-0.048 0.074-0.085 0.127-0.105 0.050-0.015 0.102-0.015 0.152 0h18.38c0.047 0.028 0.090 0.063 0.127 0.105 0.038 0.039 0.063 0.091 0.076 0.144 0.019 0.060 0.019 0.124 0 0.184l-0.823 7.246z"></path>
</symbol>
<symbol id="icon-x" viewBox="0 0 32 32">
<path stroke-linejoin="round" stroke-linecap="round" stroke-miterlimit="4" stroke-width="3.4286" d="M24 8l-16 16"></path>
<path stroke-linejoin="round" stroke-linecap="round" stroke-miterlimit="4" stroke-width="3.4286" d="M8 8l16 16"></path>
</symbol>
<symbol id="icon-vector-down" viewBox="0 0 48 32">
<path stroke-linejoin="round" stroke-linecap="round" stroke-miterlimit="4" stroke-width="8" d="M4 6l20 20 20-20"></path>
</symbol>
<symbol id="icon-vector-up" viewBox="0 0 48 32">
<path stroke-linejoin="round" stroke-linecap="round" stroke-miterlimit="4" stroke-width="8" d="M4 26l20-20 20 20"></path>
</symbol>
</defs>
</svg>



